<?xml version="1.0" encoding="UTF-8" standalone="no"?>
<!DOCTYPE svg PUBLIC "-//W3C//DTD SVG 1.1//EN" "http://www.w3.org/Graphics/SVG/1.1/DTD/svg11.dtd">
<svg width="100%" height="100%" viewBox="0 0 1440 1080" version="1.1" xmlns="http://www.w3.org/2000/svg" xmlns:xlink="http://www.w3.org/1999/xlink" xml:space="preserve" xmlns:serif="http://www.serif.com/" style="fill-rule:evenodd;clip-rule:evenodd;stroke-linejoin:round;stroke-miterlimit:2;">
    <g transform="matrix(5.218702,0,0,5.218702,966.729474,922.488906)">
        <path d="M0,-146.56C-0.08,-146.466 -0.159,-146.372 -0.239,-146.277C0.811,-145.156 1.897,-144.065 2.901,-142.902C3.761,-141.906 4.715,-141.728 5.904,-142.205C6.935,-142.618 8.001,-142.944 9.343,-143.41C6.028,-144.528 3.014,-145.544 0,-146.56M-103.104,-142.858C-100.802,-145.949 -98.62,-148.877 -96.478,-151.752C-102.582,-151.17 -108.191,-148.658 -113.977,-146.304C-110.223,-145.114 -106.579,-143.959 -103.104,-142.858M-4.366,-139.324C-4.72,-139.808 -4.872,-140.079 -5.082,-140.292C-7.654,-142.913 -10.212,-145.549 -12.822,-148.13C-14.498,-149.787 -16.308,-151.168 -18.835,-151.398C-21.588,-151.648 -24.319,-152.151 -27.062,-152.526C-28.484,-152.721 -29.912,-152.878 -31.253,-153.042C-29.416,-149.853 -27.537,-146.749 -25.822,-143.557C-24.699,-141.468 -23.835,-139.242 -22.8,-137.104C-22.657,-136.809 -22.173,-136.466 -21.879,-136.494C-19.678,-136.698 -17.47,-136.905 -15.292,-137.273C-11.732,-137.875 -8.192,-138.599 -4.366,-139.324M-63.17,8.824C-64.264,7.145 -65.356,5.681 -66.222,4.094C-67.798,1.206 -69.247,-1.752 -70.736,-4.687C-71.737,-6.66 -71.543,-6.506 -73.473,-6.212C-76.591,-5.735 -79.711,-5.252 -82.81,-4.671C-85.724,-4.125 -88.611,-3.442 -91.514,-2.835C-92.381,-2.653 -93.259,-2.527 -94.298,-2.346C-93.09,-0.524 -91.955,1.098 -90.917,2.78C-89.964,4.325 -88.639,5.181 -86.852,5.422C-85.305,5.63 -83.764,5.884 -82.23,6.171C-80.303,6.53 -78.4,7.03 -76.463,7.314C-73.214,7.791 -69.949,8.159 -66.687,8.544C-65.572,8.676 -64.446,8.725 -63.17,8.824M3.459,-1.581C1.35,-2.143 -0.375,-2.676 -2.133,-3.057C-5.559,-3.801 -9.001,-4.475 -12.443,-5.149C-15.278,-5.704 -18.12,-6.221 -20.962,-6.743C-21.428,-6.829 -21.922,-7.089 -22.23,-6.373C-22.946,-4.704 -23.704,-3.052 -24.493,-1.417C-25.745,1.178 -27.033,3.756 -28.315,6.336C-28.654,7.019 -29.028,7.685 -29.41,8.404C-27.62,8.179 -25.982,7.932 -24.335,7.776C-21.6,7.516 -18.85,7.396 -16.125,7.064C-13.86,6.788 -11.615,6.332 -9.375,5.884C-6.354,5.281 -3.345,4.613 -0.334,3.959C-0.163,3.922 0.032,3.789 0.126,3.644C1.207,1.972 2.27,0.289 3.459,-1.581M-33.343,-135.079C-33.463,-135.683 -33.486,-136.121 -33.637,-136.509C-34.407,-138.49 -35.166,-140.477 -36.012,-142.426C-37.338,-145.483 -38.665,-148.543 -40.122,-151.538C-40.885,-153.105 -41.982,-154.295 -44.056,-154.276C-46.151,-154.256 -48.251,-154.566 -50.345,-154.773C-51.04,-154.841 -51.436,-154.645 -51.736,-153.982C-52.527,-152.234 -53.427,-150.537 -54.222,-148.791C-55.187,-146.675 -56.138,-144.55 -57.004,-142.392C-57.9,-140.161 -58.688,-137.886 -59.598,-135.426C-50.869,-134.503 -42.231,-134.753 -33.343,-135.079M-60.693,-7.534C-60.641,-7.267 -60.637,-7.148 -60.594,-7.045C-58.617,-2.269 -56.622,2.5 -54.666,7.285C-54.119,8.623 -53.645,9.519 -51.753,9.372C-48.563,9.124 -45.324,9.314 -42.119,9.524C-40.629,9.621 -39.716,9.083 -39.107,7.888C-37.805,5.334 -36.514,2.771 -35.315,0.168C-34.156,-2.347 -33.118,-4.918 -31.98,-7.574C-41.547,-8.775 -51.092,-7.695 -60.693,-7.534M-93.144,-140.199C-85.142,-138.665 -77.306,-136.743 -69.447,-136.457C-66.374,-142.769 -63.382,-148.917 -60.455,-154.929C-63.257,-154.929 -66.158,-155.02 -69.051,-154.906C-72.799,-154.759 -76.542,-154.463 -80.283,-154.184C-80.708,-154.152 -81.185,-153.893 -81.511,-153.6C-83.56,-151.756 -85.498,-149.819 -87.167,-147.598C-89.043,-145.103 -91.086,-142.732 -93.144,-140.199M9.735,-134.548C10.023,-134.11 10.313,-133.652 10.62,-133.206C12.199,-130.917 13.82,-128.656 15.354,-126.338C17.299,-123.398 19.579,-120.654 20.784,-117.268C20.834,-117.128 20.959,-116.974 21.089,-116.91C21.45,-116.734 21.872,-116.414 22.201,-116.482C24.133,-116.882 26.052,-117.352 27.964,-117.845C32.172,-118.928 36.382,-120.007 40.572,-121.158C41.834,-121.504 43.033,-122.079 44.51,-122.645C42.689,-124.097 41.147,-125.337 39.594,-126.563C38.17,-127.686 36.794,-128.884 35.289,-129.887C33.282,-131.224 31.185,-132.427 29.101,-133.644C26.5,-135.163 23.882,-136.651 21.248,-138.11C20.977,-138.26 20.516,-138.203 20.19,-138.097C18.573,-137.574 16.973,-136.999 15.364,-136.45C13.533,-135.826 11.699,-135.212 9.735,-134.548M-143.498,-25.831C-142.676,-25.216 -142.161,-24.91 -141.741,-24.505C-139.681,-22.513 -137.729,-20.399 -135.577,-18.513C-133.448,-16.646 -131.189,-14.912 -128.874,-13.28C-125.716,-11.054 -122.446,-8.989 -119.239,-6.834C-118.578,-6.389 -118.02,-6.321 -117.298,-6.765C-116.494,-7.259 -115.593,-7.601 -114.718,-7.974C-113.205,-8.618 -111.679,-9.235 -110.315,-9.799C-113.864,-17.484 -117.388,-25.116 -121.023,-32.987C-128.211,-30.698 -135.695,-28.315 -143.498,-25.831M-14.319,-110.768C-5.099,-111.092 3.775,-112.947 12.94,-114.709C11.594,-117.048 10.403,-119.318 9.026,-121.467C7.014,-124.606 4.91,-127.689 2.749,-130.727C2.253,-131.426 1.847,-132.357 0.424,-132.015C-4.353,-130.867 -9.184,-129.947 -13.991,-128.927C-15.715,-128.561 -17.43,-128.157 -19.251,-127.747C-16.542,-122.252 -15.89,-116.314 -14.319,-110.768M-73.539,-126.567C-73.771,-126.656 -74.014,-126.803 -74.272,-126.841C-76.508,-127.171 -78.76,-127.403 -80.981,-127.812C-86.939,-128.91 -92.887,-130.058 -98.827,-131.251C-99.49,-131.384 -99.857,-131.349 -100.216,-130.786C-101.21,-129.227 -102.285,-127.718 -103.239,-126.136C-104.813,-123.523 -106.33,-120.875 -107.845,-118.228C-108.438,-117.193 -108.961,-116.118 -109.504,-115.085C-99.147,-112.904 -88.935,-111.191 -78.929,-110.086C-77.093,-115.7 -75.328,-121.096 -73.539,-126.567M-147.291,-125.355C-144.697,-124.395 -142.216,-123.335 -139.65,-122.557C-135.376,-121.262 -131.062,-120.089 -126.737,-118.975C-124.091,-118.294 -121.396,-117.795 -118.711,-117.282C-118.397,-117.223 -117.84,-117.509 -117.672,-117.796C-117.24,-118.536 -117.023,-119.399 -116.612,-120.154C-114.921,-123.255 -113.201,-126.34 -111.469,-129.419C-110.642,-130.89 -109.765,-132.334 -108.922,-133.77C-109.095,-133.909 -109.148,-133.976 -109.217,-134.004C-114.554,-136.141 -119.89,-138.282 -125.237,-140.396C-125.597,-140.539 -126.109,-140.646 -126.422,-140.498C-127.81,-139.842 -129.223,-139.194 -130.496,-138.346C-133.648,-136.245 -136.708,-134.007 -139.843,-131.88C-142.597,-130.012 -145.05,-127.824 -147.291,-125.355M-62.875,-125.449C-63.523,-122.224 -64.235,-119.009 -64.797,-115.767C-65.156,-113.701 -65.281,-111.595 -65.534,-109.509C-65.644,-108.607 -65.141,-108.421 -64.4,-108.413C-61.571,-108.379 -58.742,-108.33 -55.913,-108.292C-54.457,-108.272 -52.999,-108.238 -51.543,-108.251C-49.682,-108.267 -47.822,-108.336 -45.962,-108.358C-43.551,-108.386 -41.139,-108.333 -38.731,-108.419C-36.439,-108.5 -34.151,-108.692 -31.865,-108.878C-30.219,-109.011 -28.578,-109.215 -26.809,-109.4C-27.569,-115.038 -28.763,-120.501 -30.426,-125.791C-41.216,-125.48 -51.954,-124.674 -62.875,-125.449M28.503,-36.881C24.773,-27.523 21.052,-18.188 17.267,-8.694C20.232,-7.99 23.17,-7.244 26.134,-6.631C26.711,-6.512 27.503,-6.747 28.009,-7.093C31.009,-9.144 33.957,-11.273 36.917,-13.382C38.627,-14.6 40.361,-15.788 42.023,-17.069C43.167,-17.951 44.218,-18.956 45.29,-19.928C47.118,-21.585 49.006,-23.185 50.728,-24.947C52.48,-26.741 54.061,-28.702 55.967,-30.876C51.194,-31.978 46.696,-33.059 42.178,-34.046C37.589,-35.048 32.979,-35.957 28.503,-36.881M-82.231,-41.357C-92.15,-39.935 -101.855,-38.047 -111.574,-35.286C-110.572,-32.945 -109.699,-30.793 -108.737,-28.683C-106.918,-24.69 -105.072,-20.709 -103.186,-16.747C-102.562,-15.435 -101.81,-14.179 -101.043,-12.942C-100.917,-12.739 -100.388,-12.649 -100.087,-12.71C-96.884,-13.368 -93.706,-14.163 -90.488,-14.731C-85.646,-15.587 -80.778,-16.291 -75.736,-17.089C-78.428,-25.021 -81.157,-32.958 -82.231,-41.357M-9.252,-41.975C-9.54,-36.245 -15.375,-21.544 -17.148,-17.159C-13.094,-16.34 -8.982,-15.642 -4.941,-14.656C-1.03,-13.701 2.806,-12.445 6.68,-11.339C7.125,-11.213 7.603,-11.159 8.065,-11.159C8.295,-11.159 8.628,-11.295 8.737,-11.476C9.078,-12.04 9.352,-12.648 9.621,-13.253C10.645,-15.563 11.641,-17.886 12.677,-20.192C13.657,-22.373 14.753,-24.507 15.655,-26.719C16.863,-29.684 17.947,-32.701 19.054,-35.706C19.374,-36.573 19.591,-37.478 19.848,-38.342C10.219,-40.714 0.488,-40.991 -9.252,-41.975M52.768,-113.977C43.668,-111.62 34.822,-109.329 25.773,-106.986C29.999,-99.12 31.416,-90.399 33.571,-81.764C33.736,-81.717 34.074,-81.524 34.397,-81.547C36.091,-81.672 37.784,-82.005 39.473,-81.977C42.168,-81.933 44.858,-81.624 47.554,-81.495C54.27,-81.172 60.988,-80.878 67.707,-80.601C68.414,-80.572 69.128,-80.736 70.049,-80.832C66.519,-93.291 60.101,-103.972 52.768,-113.977M71.347,-69.671C59.126,-70.673 47.095,-71.672 34.831,-71.144C35.867,-62.341 32.69,-54.207 31.43,-45.833C33.356,-45.312 35.237,-44.803 37.12,-44.298C37.194,-44.278 37.28,-44.308 37.359,-44.301C38.61,-44.186 39.881,-44.173 41.109,-43.934C44.563,-43.263 48.002,-42.508 51.442,-41.768C54.802,-41.044 58.157,-40.296 61.671,-39.525C66.716,-48.953 71.665,-58.493 71.347,-69.671M-129.374,-83.048C-128.301,-87.33 -127.366,-91.403 -126.249,-95.425C-125.12,-99.486 -123.811,-103.498 -122.556,-107.613C-122.733,-107.669 -123.062,-107.794 -123.402,-107.876C-126.907,-108.726 -130.428,-109.513 -133.915,-110.428C-138.49,-111.629 -143.047,-112.902 -147.596,-114.198C-149.77,-114.818 -151.908,-115.564 -154.168,-116.286C-154.228,-116.209 -154.403,-115.998 -154.563,-115.775C-157.322,-111.932 -159.04,-107.544 -161.076,-103.322C-161.313,-102.829 -161.645,-102.37 -161.808,-101.856C-163.202,-97.451 -164.62,-93.052 -165.909,-88.616C-166.296,-87.285 -166.303,-85.844 -166.482,-84.464C-153.827,-83.981 -141.421,-83.508 -129.374,-83.048M-27.734,-18.422C-27.379,-19.38 -27.128,-20.047 -26.885,-20.717C-25.773,-23.787 -24.562,-26.826 -23.583,-29.938C-22.794,-32.448 -22.245,-35.038 -21.667,-37.609C-21.331,-39.104 -21.101,-40.627 -20.937,-42.149C-20.907,-42.429 -21.401,-43.021 -21.682,-43.04C-24.565,-43.232 -27.453,-43.358 -30.342,-43.455C-32.482,-43.527 -34.627,-43.48 -36.766,-43.577C-38.376,-43.65 -39.979,-43.983 -41.586,-43.993C-44.358,-44.012 -47.132,-43.877 -49.905,-43.793C-55.151,-43.633 -60.398,-43.485 -65.642,-43.28C-66.965,-43.228 -68.28,-42.976 -69.707,-42.802C-69.038,-34.383 -66.325,-26.593 -64.433,-18.52C-52.167,-19.856 -39.943,-20.296 -27.734,-18.422M-124.071,-41.706C-124.429,-43.128 -124.832,-44.65 -125.195,-46.183C-125.706,-48.34 -126.33,-50.482 -126.651,-52.669C-127.323,-57.256 -127.828,-61.868 -128.405,-66.47C-128.474,-67.019 -128.62,-67.564 -128.633,-68.113C-128.67,-69.655 -128.642,-71.199 -128.666,-72.741C-128.678,-73.489 -129.217,-73.763 -129.812,-73.579C-132.188,-72.845 -134.589,-73.226 -136.987,-73.298C-138.567,-73.346 -140.149,-73.335 -141.729,-73.334C-143.555,-73.333 -145.381,-73.281 -147.205,-73.314C-149.217,-73.351 -151.229,-73.534 -153.239,-73.52C-156.476,-73.497 -159.711,-73.353 -162.947,-73.283C-164.364,-73.253 -165.782,-73.278 -167.182,-73.278C-167.127,-72.283 -167.127,-71.491 -167.033,-70.711C-166.804,-68.822 -166.683,-66.9 -166.237,-65.06C-165.682,-62.777 -164.946,-60.523 -164.105,-58.326C-161.924,-52.625 -159.345,-47.101 -156.083,-41.932C-154.299,-39.106 -152.331,-36.397 -150.638,-33.917C-141.623,-36.56 -132.837,-39.136 -124.071,-41.706M-114.245,-44.018C-113.826,-44.039 -113.379,-44.005 -112.957,-44.092C-110.446,-44.61 -107.954,-45.232 -105.431,-45.679C-98.728,-46.867 -92.024,-48.064 -85.296,-49.103C-80.087,-49.908 -74.849,-50.544 -69.61,-51.132C-66.174,-51.518 -62.717,-51.767 -59.262,-51.923C-56.283,-52.058 -53.293,-51.953 -50.308,-51.997C-47.016,-52.044 -43.726,-52.148 -40.434,-52.212C-36.947,-52.279 -33.459,-52.393 -29.972,-52.362C-27.365,-52.338 -24.755,-52.167 -22.153,-51.969C-18.594,-51.698 -15.042,-51.327 -11.486,-51.02C-8.324,-50.748 -5.159,-50.521 -1.998,-50.242C0.348,-50.035 2.696,-49.822 5.033,-49.527C7.181,-49.257 9.411,-49.617 11.478,-48.66C11.843,-48.491 12.344,-48.619 12.783,-48.606C14.236,-48.565 15.689,-48.524 17.142,-48.473C17.19,-48.471 17.223,-48.304 17.28,-48.292C18.739,-47.987 20.193,-47.646 21.666,-47.437C21.922,-47.401 22.478,-47.899 22.523,-48.205C23.055,-51.85 23.701,-55.494 23.949,-59.163C24.237,-63.415 24.174,-67.692 24.232,-71.958C24.258,-73.897 24.321,-75.846 24.164,-77.774C23.977,-80.057 23.591,-82.324 23.256,-84.593C22.943,-86.706 22.761,-88.86 22.205,-90.91C21.276,-94.342 20.107,-97.708 19.017,-101.095C18.525,-102.623 17.98,-104.135 17.482,-105.587C-4.332,-102.037 -26.019,-99.4 -48.031,-99.378C-70.04,-99.355 -91.748,-101.778 -113.274,-105.638C-113.759,-104.392 -114.186,-103.411 -114.525,-102.4C-115.476,-99.558 -116.496,-96.732 -117.285,-93.844C-117.893,-91.623 -118.222,-89.322 -118.619,-87.047C-118.965,-85.064 -119.436,-83.073 -119.488,-81.076C-119.574,-77.811 -119.454,-74.533 -119.248,-71.271C-119.108,-69.055 -118.676,-66.858 -118.368,-64.654C-118.122,-62.891 -117.868,-61.13 -117.614,-59.368C-117.338,-57.456 -117.184,-55.515 -116.753,-53.639C-116.023,-50.464 -115.118,-47.329 -114.245,-44.018M-68.99,-164.295C-63.806,-164.508 -60.181,-164.757 -56.555,-164.777C-53.105,-164.796 -49.654,-164.591 -46.204,-164.455C-43.27,-164.34 -40.329,-164.275 -37.406,-164.021C-33.61,-163.69 -29.819,-163.27 -26.045,-162.748C-22.247,-162.222 -18.462,-161.584 -14.692,-160.881C-11.808,-160.343 -8.944,-159.679 -6.094,-158.978C-2.431,-158.077 1.228,-157.146 4.852,-156.102C6.478,-155.633 8.012,-154.851 9.592,-154.221C12.344,-153.124 15.147,-152.141 17.842,-150.92C23.553,-148.334 29.31,-145.82 34.847,-142.894C38.215,-141.114 41.272,-138.707 44.349,-136.42C47.024,-134.431 49.615,-132.308 52.093,-130.078C56.007,-126.557 59.83,-122.932 63.089,-118.763C64.871,-116.483 66.786,-114.301 68.485,-111.962C69.823,-110.122 70.954,-108.128 72.122,-106.169C74.846,-101.598 76.955,-96.735 78.766,-91.746C79.734,-89.076 80.604,-86.366 81.387,-83.636C81.765,-82.319 81.879,-80.919 82.044,-79.548C82.239,-77.93 82.455,-76.306 82.49,-74.68C82.53,-72.748 82.473,-70.805 82.304,-68.88C82.064,-66.143 81.896,-63.372 81.313,-60.699C80.456,-56.763 79.585,-52.775 78.126,-49.041C76.356,-44.511 74.4,-40.014 71.575,-35.964C69.832,-33.466 68.378,-30.768 66.701,-28.222C65.795,-26.847 64.694,-25.6 63.677,-24.299C62.288,-22.524 60.985,-20.67 59.477,-19.001C57.996,-17.362 56.415,-15.773 54.684,-14.408C50.373,-11.007 46.025,-7.644 41.553,-4.462C37.784,-1.78 33.936,0.833 29.912,3.101C24.784,5.99 19.341,8.27 13.682,9.947C9.92,11.063 6.126,12.085 2.313,13.011C-0.022,13.578 -2.425,13.858 -4.789,14.313C-6.746,14.689 -8.679,15.198 -10.643,15.527C-12.832,15.894 -15.039,16.172 -17.247,16.404C-21.44,16.845 -25.636,17.264 -29.838,17.613C-31.377,17.741 -32.936,17.601 -34.483,17.662C-38.585,17.824 -42.684,18.129 -46.787,18.187C-50.2,18.236 -53.616,18.027 -57.03,17.913C-58.859,17.851 -60.694,17.829 -62.513,17.651C-66.269,17.283 -70.035,16.943 -73.761,16.367C-77.902,15.728 -82.013,14.878 -86.12,14.039C-87.85,13.685 -89.527,13.076 -91.248,12.668C-92.885,12.28 -94.568,12.079 -96.197,11.662C-98.984,10.948 -101.782,10.239 -104.507,9.325C-107.548,8.304 -110.551,7.147 -113.498,5.88C-116.079,4.77 -118.571,3.449 -121.08,2.178C-123.687,0.856 -126.291,-0.474 -128.849,-1.887C-130.16,-2.611 -131.382,-3.503 -132.617,-4.358C-133.858,-5.216 -135.082,-6.1 -136.281,-7.016C-137.367,-7.846 -138.439,-8.7 -139.464,-9.604C-141.767,-11.634 -144.113,-13.624 -146.303,-15.773C-149.577,-18.987 -152.91,-22.17 -155.896,-25.643C-160.84,-31.391 -165.262,-37.527 -168.262,-44.577C-169.221,-46.831 -170.523,-48.949 -171.363,-51.24C-172.658,-54.775 -174.436,-58.148 -175.083,-61.911C-175.5,-64.332 -176.073,-66.736 -176.327,-69.174C-176.705,-72.821 -177.047,-76.49 -177.058,-80.151C-177.066,-82.983 -176.659,-85.835 -176.22,-88.644C-175.793,-91.371 -175.238,-94.098 -174.468,-96.746C-173.685,-99.435 -172.538,-102.016 -171.609,-104.664C-170.407,-108.087 -168.778,-111.308 -166.827,-114.338C-164.965,-117.229 -162.88,-119.979 -160.843,-122.753C-159.038,-125.211 -157.292,-127.731 -155.279,-130.011C-153.715,-131.783 -151.843,-133.304 -149.996,-134.797C-147.556,-136.768 -145.08,-138.712 -142.484,-140.468C-139.662,-142.377 -136.694,-144.07 -133.774,-145.831C-131.274,-147.339 -128.805,-148.909 -126.227,-150.271C-123.091,-151.928 -119.921,-153.558 -116.644,-154.904C-112.896,-156.443 -108.991,-157.593 -105.198,-159.029C-101.035,-160.604 -96.684,-161.29 -92.323,-161.895C-87.649,-162.543 -82.955,-163.062 -78.261,-163.542C-74.661,-163.91 -71.046,-164.131 -68.99,-164.295" style="fill-rule:nonzero;"/>
    </g>
    <g transform="matrix(5.218702,0,0,5.218702,801.194326,563.908222)">
        <path d="M0,-12.387C0,-10.946 -0.044,-9.468 0.009,-7.993C0.117,-5.053 0.313,-2.115 0.406,0.826C0.491,3.462 0.492,6.101 0.519,8.739C0.53,9.758 -0.392,10.698 -1.539,10.734C-3.554,10.795 -5.573,10.841 -7.586,10.778C-8.859,10.739 -8.946,9.592 -9.06,8.69C-9.19,7.665 -9.075,6.612 -9.136,5.575C-9.342,2.096 -9.623,-1.38 -9.791,-4.861C-9.936,-7.887 -9.921,-10.92 -10.061,-13.945C-10.186,-16.64 -10.453,-19.327 -10.602,-22.021C-10.656,-23.014 -10.714,-24.055 -10.483,-25.005C-10.013,-26.939 -8.374,-27.882 -6.527,-26.86C-2.539,-24.653 1.314,-22.2 5.198,-19.809C8.533,-17.757 11.858,-15.688 15.145,-13.559C17.241,-12.201 19.242,-10.696 21.316,-9.302C23.69,-7.706 26.093,-6.155 28.49,-4.594C31.16,-2.853 33.838,-1.123 36.388,0.532C36.568,-2.378 36.816,-5.332 36.904,-8.29C36.945,-9.632 36.716,-10.99 36.528,-12.329C36.055,-15.703 35.536,-19.069 35.033,-22.438C35.003,-22.636 34.963,-22.834 34.904,-23.024C34.261,-25.076 34.538,-25.762 36.653,-26.355C38.625,-26.909 40.66,-27.238 42.673,-27.641C43.236,-27.753 43.841,-27.911 44.385,-27.814C45.873,-27.549 45.686,-26.167 45.845,-25.173C46.458,-21.339 46.998,-17.492 47.464,-13.637C47.645,-12.141 47.551,-10.612 47.596,-9.098C47.642,-7.553 47.812,-6.004 47.741,-4.466C47.572,-0.825 47.306,2.812 47.054,6.448C46.934,8.177 46.787,9.904 46.593,11.625C46.491,12.53 46.422,13.5 46.031,14.289C45.759,14.838 44.981,15.444 44.403,15.471C43.24,15.524 42.001,15.367 40.903,14.985C39.653,14.55 38.471,13.853 37.351,13.129C35.232,11.76 33.17,10.303 31.101,8.859C27.456,6.315 23.82,3.758 20.187,1.197C17.867,-0.439 15.576,-2.115 13.241,-3.728C11.707,-4.787 10.114,-5.762 8.553,-6.782C5.687,-8.656 2.825,-10.535 0,-12.387" style="fill-rule:nonzero;"/>
    </g>
    <g transform="matrix(5.218702,0,0,5.218702,451.918066,572.877083)">
        <path d="M0,-17.623C-0.341,-14.663 -0.823,-11.925 -0.93,-9.172C-1.065,-5.724 -0.926,-2.262 -0.842,1.192C-0.759,4.619 0.098,7.919 0.922,11.222C1.236,12.479 0.517,13.425 -0.965,13.749C-2.317,14.045 -3.68,14.296 -5.046,14.518C-6.84,14.809 -8.286,13.891 -8.629,12.071C-9.259,8.725 -10.032,5.374 -10.256,1.993C-10.584,-2.973 -10.649,-7.971 -10.52,-12.948C-10.378,-18.465 -9.5,-23.897 -7.937,-29.224C-6.996,-32.432 -4.339,-32.272 -2.463,-30.973C0.271,-29.08 2.897,-27.032 5.626,-25.133C9.63,-22.346 13.71,-19.669 17.706,-16.872C20.059,-15.225 22.301,-13.422 24.614,-11.719C26.172,-10.573 27.745,-9.446 29.35,-8.367C31.695,-6.79 34.074,-5.264 36.605,-3.607C36.478,-5.926 36.323,-8.064 36.26,-10.205C36.229,-11.273 36.426,-12.346 36.419,-13.416C36.404,-15.349 36.303,-17.282 36.259,-19.216C36.218,-21.029 36.176,-22.844 36.188,-24.658C36.197,-25.971 36.75,-26.447 38.131,-26.492C40.576,-26.571 43.024,-26.611 45.465,-26.763C46.595,-26.833 47.013,-26.288 47.028,-25.324C47.071,-22.594 47.043,-19.863 47.081,-17.133C47.121,-14.317 47.252,-11.501 47.26,-8.685C47.268,-5.764 47.152,-2.842 47.138,0.08C47.13,1.694 47.289,3.311 47.248,4.924C47.177,7.716 45.845,9.479 42.621,8.953C40.213,8.56 38.055,7.759 36,6.574C34.658,5.8 33.399,4.881 32.111,4.015C28.211,1.392 24.311,-1.232 20.417,-3.865C15.991,-6.857 11.576,-9.865 7.148,-12.855C4.849,-14.407 2.534,-15.934 0,-17.623" style="fill-rule:nonzero;"/>
    </g>
</svg>
