<?xml version="1.0" encoding="UTF-8" standalone="no"?>
<!DOCTYPE svg PUBLIC "-//W3C//DTD SVG 1.1//EN" "http://www.w3.org/Graphics/SVG/1.1/DTD/svg11.dtd">
<svg width="100%" height="100%" viewBox="0 0 1440 1080" version="1.1" xmlns="http://www.w3.org/2000/svg" xmlns:xlink="http://www.w3.org/1999/xlink" xml:space="preserve" xmlns:serif="http://www.serif.com/" style="fill-rule:evenodd;clip-rule:evenodd;stroke-linejoin:round;stroke-miterlimit:2;">
    <g transform="matrix(3.838841,0,0,3.838841,901.658637,813.670853)">
        <path d="M0,-146.56C-0.08,-146.466 -0.159,-146.372 -0.239,-146.277C0.811,-145.156 1.897,-144.065 2.901,-142.902C3.761,-141.906 4.715,-141.728 5.904,-142.205C6.935,-142.618 8.001,-142.944 9.343,-143.41C6.028,-144.528 3.014,-145.544 0,-146.56M-103.104,-142.858C-100.802,-145.949 -98.62,-148.877 -96.478,-151.752C-102.582,-151.17 -108.191,-148.658 -113.977,-146.304C-110.223,-145.114 -106.579,-143.959 -103.104,-142.858M-4.366,-139.324C-4.72,-139.808 -4.872,-140.079 -5.082,-140.292C-7.654,-142.913 -10.212,-145.549 -12.822,-148.13C-14.498,-149.787 -16.308,-151.168 -18.835,-151.398C-21.588,-151.648 -24.319,-152.151 -27.062,-152.526C-28.484,-152.721 -29.912,-152.878 -31.253,-153.042C-29.416,-149.853 -27.537,-146.749 -25.822,-143.557C-24.699,-141.468 -23.835,-139.242 -22.8,-137.104C-22.657,-136.809 -22.173,-136.466 -21.879,-136.494C-19.678,-136.698 -17.47,-136.905 -15.292,-137.273C-11.732,-137.875 -8.192,-138.599 -4.366,-139.324M-63.17,8.824C-64.264,7.145 -65.356,5.681 -66.222,4.094C-67.798,1.206 -69.247,-1.752 -70.736,-4.687C-71.737,-6.66 -71.543,-6.506 -73.473,-6.212C-76.591,-5.735 -79.711,-5.252 -82.81,-4.671C-85.724,-4.125 -88.611,-3.442 -91.514,-2.835C-92.381,-2.653 -93.259,-2.527 -94.298,-2.346C-93.09,-0.524 -91.955,1.098 -90.917,2.78C-89.964,4.325 -88.639,5.181 -86.852,5.422C-85.305,5.63 -83.764,5.884 -82.23,6.171C-80.303,6.53 -78.4,7.03 -76.463,7.314C-73.214,7.791 -69.949,8.159 -66.687,8.544C-65.572,8.676 -64.446,8.725 -63.17,8.824M3.459,-1.581C1.35,-2.143 -0.375,-2.676 -2.133,-3.057C-5.559,-3.801 -9.001,-4.475 -12.443,-5.149C-15.278,-5.704 -18.12,-6.221 -20.962,-6.743C-21.428,-6.829 -21.922,-7.089 -22.23,-6.373C-22.946,-4.704 -23.704,-3.052 -24.493,-1.417C-25.745,1.178 -27.033,3.756 -28.315,6.336C-28.654,7.019 -29.028,7.685 -29.41,8.404C-27.62,8.179 -25.982,7.932 -24.335,7.776C-21.6,7.516 -18.85,7.396 -16.125,7.064C-13.86,6.788 -11.615,6.332 -9.375,5.884C-6.354,5.281 -3.345,4.613 -0.334,3.959C-0.163,3.922 0.032,3.789 0.126,3.644C1.207,1.972 2.27,0.289 3.459,-1.581M-33.343,-135.079C-33.463,-135.683 -33.486,-136.121 -33.637,-136.509C-34.407,-138.49 -35.166,-140.477 -36.012,-142.426C-37.338,-145.483 -38.665,-148.543 -40.122,-151.538C-40.885,-153.105 -41.982,-154.295 -44.056,-154.276C-46.151,-154.256 -48.251,-154.566 -50.345,-154.773C-51.04,-154.841 -51.436,-154.645 -51.736,-153.982C-52.527,-152.234 -53.427,-150.537 -54.222,-148.791C-55.187,-146.675 -56.138,-144.55 -57.004,-142.392C-57.9,-140.161 -58.688,-137.885 -59.598,-135.426C-50.869,-134.503 -42.231,-134.753 -33.343,-135.079M-60.693,-7.534C-60.641,-7.267 -60.637,-7.148 -60.594,-7.045C-58.617,-2.269 -56.622,2.5 -54.666,7.285C-54.119,8.623 -53.645,9.519 -51.753,9.372C-48.563,9.124 -45.324,9.314 -42.119,9.524C-40.629,9.621 -39.716,9.083 -39.107,7.888C-37.805,5.334 -36.514,2.771 -35.315,0.168C-34.156,-2.347 -33.118,-4.918 -31.98,-7.574C-41.547,-8.775 -51.092,-7.695 -60.693,-7.534M-93.144,-140.199C-85.142,-138.665 -77.306,-136.743 -69.447,-136.457C-66.374,-142.769 -63.382,-148.917 -60.455,-154.929C-63.257,-154.929 -66.158,-155.02 -69.051,-154.906C-72.799,-154.759 -76.542,-154.463 -80.283,-154.184C-80.708,-154.152 -81.185,-153.893 -81.511,-153.6C-83.56,-151.756 -85.498,-149.819 -87.167,-147.598C-89.043,-145.103 -91.086,-142.732 -93.144,-140.199M9.735,-134.548C10.023,-134.11 10.313,-133.652 10.62,-133.206C12.199,-130.917 13.82,-128.656 15.354,-126.338C17.299,-123.398 19.579,-120.654 20.784,-117.268C20.834,-117.128 20.959,-116.974 21.09,-116.91C21.45,-116.734 21.872,-116.414 22.201,-116.482C24.133,-116.882 26.052,-117.352 27.964,-117.845C32.172,-118.928 36.382,-120.007 40.572,-121.158C41.834,-121.504 43.033,-122.079 44.51,-122.645C42.689,-124.097 41.147,-125.337 39.594,-126.563C38.17,-127.686 36.794,-128.884 35.289,-129.887C33.282,-131.224 31.185,-132.427 29.101,-133.644C26.5,-135.163 23.882,-136.651 21.248,-138.11C20.977,-138.26 20.516,-138.203 20.19,-138.097C18.573,-137.574 16.973,-136.999 15.364,-136.45C13.533,-135.826 11.7,-135.212 9.735,-134.548M-143.498,-25.831C-142.676,-25.216 -142.161,-24.91 -141.741,-24.505C-139.681,-22.513 -137.729,-20.399 -135.577,-18.513C-133.448,-16.646 -131.189,-14.912 -128.874,-13.28C-125.716,-11.054 -122.446,-8.989 -119.239,-6.834C-118.578,-6.389 -118.02,-6.321 -117.298,-6.765C-116.494,-7.259 -115.593,-7.601 -114.718,-7.974C-113.205,-8.618 -111.679,-9.235 -110.315,-9.799C-113.864,-17.484 -117.388,-25.116 -121.023,-32.987C-128.211,-30.698 -135.695,-28.315 -143.498,-25.831M-14.319,-110.768C-5.099,-111.092 3.775,-112.947 12.94,-114.709C11.594,-117.048 10.403,-119.318 9.026,-121.467C7.014,-124.606 4.91,-127.689 2.749,-130.727C2.253,-131.426 1.847,-132.357 0.424,-132.015C-4.353,-130.867 -9.184,-129.947 -13.991,-128.927C-15.715,-128.561 -17.43,-128.157 -19.251,-127.747C-16.542,-122.252 -15.89,-116.314 -14.319,-110.768M-73.539,-126.567C-73.771,-126.656 -74.014,-126.803 -74.272,-126.841C-76.508,-127.171 -78.76,-127.403 -80.981,-127.812C-86.939,-128.91 -92.887,-130.058 -98.827,-131.251C-99.49,-131.384 -99.857,-131.349 -100.216,-130.786C-101.21,-129.227 -102.285,-127.718 -103.239,-126.136C-104.813,-123.523 -106.33,-120.875 -107.845,-118.228C-108.438,-117.193 -108.961,-116.118 -109.504,-115.085C-99.147,-112.904 -88.935,-111.191 -78.929,-110.086C-77.093,-115.7 -75.328,-121.096 -73.539,-126.567M-147.291,-125.355C-144.697,-124.395 -142.216,-123.335 -139.65,-122.557C-135.376,-121.262 -131.062,-120.089 -126.737,-118.975C-124.091,-118.294 -121.396,-117.795 -118.711,-117.282C-118.397,-117.223 -117.84,-117.509 -117.672,-117.796C-117.24,-118.536 -117.023,-119.399 -116.612,-120.154C-114.921,-123.255 -113.201,-126.34 -111.469,-129.419C-110.642,-130.89 -109.765,-132.334 -108.922,-133.77C-109.095,-133.909 -109.148,-133.976 -109.217,-134.004C-114.554,-136.141 -119.89,-138.282 -125.237,-140.396C-125.597,-140.539 -126.109,-140.646 -126.422,-140.498C-127.81,-139.842 -129.223,-139.194 -130.496,-138.346C-133.648,-136.245 -136.708,-134.007 -139.843,-131.88C-142.597,-130.012 -145.05,-127.824 -147.291,-125.355M-62.875,-125.449C-63.523,-122.224 -64.235,-119.009 -64.797,-115.767C-65.156,-113.701 -65.281,-111.595 -65.534,-109.509C-65.644,-108.607 -65.141,-108.421 -64.4,-108.413C-61.571,-108.379 -58.742,-108.33 -55.913,-108.292C-54.457,-108.272 -52.999,-108.238 -51.543,-108.251C-49.682,-108.267 -47.822,-108.336 -45.962,-108.358C-43.551,-108.386 -41.139,-108.333 -38.731,-108.419C-36.439,-108.5 -34.151,-108.692 -31.865,-108.878C-30.219,-109.011 -28.578,-109.215 -26.809,-109.4C-27.569,-115.038 -28.763,-120.501 -30.426,-125.791C-41.216,-125.48 -51.954,-124.674 -62.875,-125.449M28.503,-36.881C24.773,-27.523 21.052,-18.188 17.267,-8.694C20.232,-7.99 23.17,-7.244 26.134,-6.631C26.711,-6.512 27.503,-6.747 28.009,-7.093C31.009,-9.144 33.957,-11.273 36.917,-13.382C38.627,-14.6 40.361,-15.788 42.023,-17.069C43.167,-17.951 44.218,-18.956 45.29,-19.928C47.118,-21.585 49.006,-23.185 50.728,-24.947C52.48,-26.741 54.061,-28.702 55.967,-30.876C51.194,-31.978 46.696,-33.059 42.178,-34.046C37.589,-35.048 32.979,-35.957 28.503,-36.881M-82.231,-41.357C-92.15,-39.935 -101.855,-38.047 -111.574,-35.286C-110.572,-32.945 -109.699,-30.793 -108.737,-28.683C-106.918,-24.69 -105.072,-20.709 -103.186,-16.747C-102.562,-15.435 -101.81,-14.179 -101.043,-12.942C-100.917,-12.739 -100.388,-12.649 -100.087,-12.71C-96.884,-13.368 -93.706,-14.163 -90.488,-14.731C-85.646,-15.587 -80.778,-16.291 -75.736,-17.089C-78.428,-25.021 -81.157,-32.958 -82.231,-41.357M-9.252,-41.975C-9.54,-36.245 -15.375,-21.544 -17.148,-17.159C-13.094,-16.34 -8.982,-15.642 -4.941,-14.656C-1.03,-13.701 2.806,-12.445 6.68,-11.339C7.125,-11.213 7.603,-11.159 8.065,-11.159C8.295,-11.159 8.628,-11.295 8.737,-11.476C9.078,-12.04 9.352,-12.648 9.621,-13.253C10.645,-15.563 11.641,-17.886 12.677,-20.192C13.657,-22.373 14.753,-24.507 15.655,-26.719C16.863,-29.684 17.947,-32.701 19.054,-35.706C19.374,-36.573 19.591,-37.478 19.848,-38.342C10.219,-40.714 0.488,-40.991 -9.252,-41.975M52.768,-113.977C43.668,-111.62 34.822,-109.329 25.773,-106.986C29.999,-99.12 31.416,-90.399 33.571,-81.764C33.736,-81.717 34.074,-81.524 34.397,-81.547C36.091,-81.672 37.784,-82.005 39.473,-81.977C42.168,-81.933 44.858,-81.624 47.554,-81.495C54.27,-81.172 60.988,-80.878 67.707,-80.601C68.414,-80.572 69.128,-80.736 70.049,-80.832C66.519,-93.291 60.101,-103.972 52.768,-113.977M71.347,-69.671C59.126,-70.673 47.095,-71.672 34.831,-71.144C35.867,-62.341 32.69,-54.207 31.43,-45.833C33.356,-45.312 35.237,-44.803 37.12,-44.298C37.194,-44.278 37.28,-44.308 37.359,-44.301C38.61,-44.186 39.881,-44.173 41.109,-43.934C44.563,-43.263 48.002,-42.508 51.442,-41.768C54.802,-41.044 58.157,-40.296 61.671,-39.525C66.716,-48.953 71.665,-58.493 71.347,-69.671M-129.374,-83.048C-128.301,-87.33 -127.366,-91.403 -126.249,-95.425C-125.12,-99.486 -123.811,-103.498 -122.556,-107.613C-122.733,-107.669 -123.062,-107.794 -123.402,-107.876C-126.907,-108.726 -130.428,-109.513 -133.915,-110.428C-138.49,-111.629 -143.047,-112.902 -147.596,-114.198C-149.77,-114.818 -151.908,-115.564 -154.168,-116.286C-154.228,-116.209 -154.403,-115.998 -154.563,-115.775C-157.322,-111.932 -159.04,-107.544 -161.076,-103.322C-161.313,-102.829 -161.645,-102.37 -161.808,-101.856C-163.202,-97.451 -164.62,-93.052 -165.909,-88.616C-166.296,-87.285 -166.303,-85.844 -166.482,-84.464C-153.827,-83.981 -141.421,-83.508 -129.374,-83.048M-27.734,-18.422C-27.379,-19.38 -27.128,-20.047 -26.885,-20.717C-25.773,-23.787 -24.562,-26.826 -23.583,-29.938C-22.794,-32.448 -22.245,-35.038 -21.667,-37.609C-21.331,-39.104 -21.101,-40.627 -20.937,-42.149C-20.906,-42.429 -21.401,-43.021 -21.682,-43.04C-24.565,-43.232 -27.453,-43.358 -30.342,-43.455C-32.482,-43.527 -34.627,-43.48 -36.766,-43.577C-38.376,-43.65 -39.979,-43.983 -41.586,-43.993C-44.358,-44.012 -47.132,-43.877 -49.905,-43.793C-55.151,-43.633 -60.398,-43.485 -65.642,-43.28C-66.965,-43.228 -68.28,-42.976 -69.707,-42.802C-69.038,-34.383 -66.325,-26.593 -64.433,-18.52C-52.167,-19.856 -39.943,-20.296 -27.734,-18.422M-124.071,-41.706C-124.429,-43.128 -124.832,-44.65 -125.195,-46.183C-125.706,-48.34 -126.33,-50.482 -126.651,-52.669C-127.323,-57.256 -127.828,-61.868 -128.405,-66.47C-128.474,-67.019 -128.62,-67.564 -128.633,-68.113C-128.67,-69.655 -128.642,-71.199 -128.666,-72.741C-128.678,-73.489 -129.217,-73.763 -129.812,-73.579C-132.188,-72.845 -134.589,-73.226 -136.987,-73.298C-138.567,-73.346 -140.149,-73.335 -141.729,-73.334C-143.555,-73.333 -145.381,-73.281 -147.205,-73.314C-149.217,-73.351 -151.229,-73.534 -153.239,-73.52C-156.476,-73.497 -159.711,-73.353 -162.947,-73.283C-164.364,-73.253 -165.782,-73.278 -167.182,-73.278C-167.127,-72.283 -167.127,-71.491 -167.033,-70.711C-166.804,-68.822 -166.683,-66.9 -166.237,-65.06C-165.682,-62.777 -164.946,-60.523 -164.105,-58.326C-161.924,-52.625 -159.345,-47.101 -156.083,-41.932C-154.299,-39.106 -152.331,-36.397 -150.638,-33.917C-141.623,-36.56 -132.837,-39.136 -124.071,-41.706M-114.245,-44.018C-113.826,-44.039 -113.379,-44.005 -112.957,-44.092C-110.446,-44.61 -107.954,-45.232 -105.431,-45.679C-98.728,-46.867 -92.024,-48.064 -85.296,-49.103C-80.087,-49.908 -74.849,-50.544 -69.61,-51.132C-66.174,-51.518 -62.717,-51.767 -59.262,-51.923C-56.283,-52.058 -53.293,-51.953 -50.308,-51.997C-47.016,-52.044 -43.726,-52.148 -40.434,-52.212C-36.947,-52.279 -33.459,-52.393 -29.972,-52.362C-27.365,-52.338 -24.755,-52.167 -22.153,-51.969C-18.594,-51.698 -15.042,-51.327 -11.486,-51.02C-8.324,-50.748 -5.159,-50.521 -1.998,-50.242C0.348,-50.035 2.696,-49.822 5.033,-49.527C7.181,-49.257 9.411,-49.617 11.478,-48.66C11.843,-48.491 12.344,-48.619 12.783,-48.606C14.236,-48.565 15.689,-48.524 17.142,-48.473C17.19,-48.471 17.223,-48.304 17.28,-48.292C18.739,-47.987 20.193,-47.646 21.666,-47.437C21.922,-47.401 22.478,-47.899 22.523,-48.205C23.055,-51.85 23.701,-55.494 23.949,-59.162C24.237,-63.415 24.174,-67.692 24.232,-71.958C24.258,-73.897 24.321,-75.846 24.164,-77.774C23.977,-80.057 23.591,-82.324 23.256,-84.593C22.943,-86.706 22.761,-88.86 22.205,-90.91C21.276,-94.342 20.107,-97.708 19.017,-101.095C18.525,-102.623 17.98,-104.135 17.482,-105.587C-4.332,-102.037 -26.019,-99.4 -48.031,-99.378C-70.04,-99.355 -91.748,-101.778 -113.274,-105.638C-113.759,-104.392 -114.186,-103.411 -114.525,-102.4C-115.476,-99.558 -116.496,-96.732 -117.285,-93.844C-117.893,-91.623 -118.222,-89.322 -118.619,-87.047C-118.965,-85.064 -119.436,-83.073 -119.488,-81.076C-119.574,-77.811 -119.454,-74.533 -119.248,-71.271C-119.108,-69.055 -118.676,-66.858 -118.368,-64.654C-118.122,-62.891 -117.868,-61.13 -117.614,-59.368C-117.338,-57.456 -117.184,-55.515 -116.753,-53.639C-116.023,-50.464 -115.118,-47.329 -114.245,-44.018M-68.99,-164.295C-63.806,-164.508 -60.181,-164.757 -56.555,-164.777C-53.105,-164.796 -49.654,-164.591 -46.204,-164.455C-43.27,-164.34 -40.329,-164.275 -37.406,-164.021C-33.61,-163.69 -29.819,-163.27 -26.045,-162.748C-22.247,-162.222 -18.462,-161.584 -14.692,-160.881C-11.808,-160.343 -8.944,-159.679 -6.094,-158.978C-2.431,-158.077 1.228,-157.146 4.852,-156.102C6.478,-155.633 8.012,-154.851 9.592,-154.221C12.344,-153.124 15.147,-152.141 17.842,-150.92C23.553,-148.334 29.31,-145.82 34.847,-142.894C38.215,-141.114 41.272,-138.707 44.349,-136.42C47.024,-134.431 49.615,-132.308 52.093,-130.078C56.007,-126.557 59.83,-122.932 63.089,-118.763C64.871,-116.483 66.786,-114.301 68.485,-111.962C69.823,-110.122 70.954,-108.128 72.122,-106.169C74.846,-101.598 76.955,-96.735 78.766,-91.746C79.734,-89.076 80.604,-86.366 81.387,-83.636C81.765,-82.319 81.879,-80.919 82.044,-79.548C82.239,-77.93 82.455,-76.306 82.49,-74.68C82.53,-72.748 82.473,-70.805 82.304,-68.88C82.064,-66.143 81.896,-63.372 81.313,-60.699C80.456,-56.763 79.585,-52.775 78.126,-49.041C76.356,-44.511 74.4,-40.014 71.575,-35.964C69.832,-33.466 68.378,-30.768 66.701,-28.222C65.795,-26.847 64.694,-25.6 63.677,-24.299C62.288,-22.524 60.985,-20.67 59.477,-19.001C57.996,-17.362 56.415,-15.773 54.684,-14.408C50.373,-11.007 46.025,-7.644 41.553,-4.462C37.784,-1.78 33.936,0.833 29.912,3.101C24.784,5.99 19.341,8.27 13.682,9.947C9.92,11.063 6.126,12.085 2.313,13.011C-0.022,13.578 -2.425,13.858 -4.789,14.313C-6.746,14.689 -8.679,15.198 -10.643,15.527C-12.832,15.894 -15.039,16.172 -17.247,16.404C-21.44,16.845 -25.636,17.264 -29.838,17.613C-31.377,17.741 -32.936,17.601 -34.483,17.662C-38.585,17.824 -42.684,18.129 -46.787,18.187C-50.2,18.236 -53.616,18.027 -57.03,17.913C-58.859,17.851 -60.694,17.829 -62.513,17.651C-66.269,17.283 -70.035,16.943 -73.761,16.367C-77.902,15.728 -82.013,14.878 -86.12,14.039C-87.85,13.685 -89.527,13.076 -91.248,12.668C-92.885,12.28 -94.568,12.079 -96.197,11.662C-98.984,10.948 -101.782,10.239 -104.507,9.325C-107.548,8.304 -110.551,7.147 -113.498,5.88C-116.079,4.77 -118.571,3.449 -121.08,2.178C-123.687,0.856 -126.291,-0.474 -128.849,-1.887C-130.16,-2.611 -131.382,-3.503 -132.617,-4.358C-133.858,-5.216 -135.082,-6.1 -136.281,-7.016C-137.367,-7.846 -138.439,-8.7 -139.464,-9.604C-141.767,-11.634 -144.113,-13.624 -146.303,-15.773C-149.577,-18.987 -152.91,-22.17 -155.896,-25.643C-160.84,-31.391 -165.262,-37.527 -168.262,-44.577C-169.221,-46.831 -170.523,-48.949 -171.363,-51.24C-172.658,-54.775 -174.436,-58.148 -175.083,-61.911C-175.5,-64.332 -176.073,-66.736 -176.327,-69.174C-176.705,-72.821 -177.047,-76.49 -177.058,-80.151C-177.066,-82.983 -176.659,-85.835 -176.22,-88.644C-175.793,-91.371 -175.238,-94.098 -174.468,-96.746C-173.685,-99.435 -172.538,-102.016 -171.609,-104.664C-170.407,-108.087 -168.778,-111.308 -166.827,-114.338C-164.965,-117.229 -162.88,-119.979 -160.843,-122.753C-159.038,-125.211 -157.292,-127.731 -155.279,-130.011C-153.715,-131.783 -151.843,-133.304 -149.996,-134.797C-147.556,-136.768 -145.08,-138.712 -142.484,-140.468C-139.662,-142.377 -136.694,-144.07 -133.774,-145.831C-131.274,-147.339 -128.805,-148.909 -126.227,-150.271C-123.091,-151.928 -119.921,-153.558 -116.644,-154.904C-112.896,-156.443 -108.991,-157.593 -105.198,-159.029C-101.035,-160.604 -96.684,-161.29 -92.323,-161.895C-87.649,-162.543 -82.955,-163.062 -78.261,-163.542C-74.661,-163.91 -71.046,-164.131 -68.99,-164.295" style="fill-rule:nonzero;"/>
    </g>
    <g transform="matrix(3.838841,0,0,3.838841,779.892139,549.901025)">
        <path d="M0,-12.387C0,-10.946 -0.044,-9.468 0.009,-7.993C0.117,-5.053 0.313,-2.115 0.406,0.826C0.491,3.462 0.492,6.101 0.519,8.739C0.53,9.758 -0.392,10.698 -1.539,10.734C-3.554,10.795 -5.573,10.841 -7.586,10.778C-8.859,10.739 -8.946,9.592 -9.06,8.69C-9.19,7.665 -9.075,6.612 -9.136,5.575C-9.342,2.096 -9.623,-1.38 -9.791,-4.861C-9.936,-7.887 -9.921,-10.92 -10.061,-13.945C-10.186,-16.64 -10.453,-19.327 -10.602,-22.021C-10.656,-23.014 -10.714,-24.055 -10.483,-25.005C-10.013,-26.939 -8.374,-27.882 -6.527,-26.86C-2.539,-24.653 1.314,-22.2 5.198,-19.809C8.533,-17.757 11.858,-15.688 15.144,-13.559C17.241,-12.201 19.242,-10.696 21.316,-9.302C23.69,-7.706 26.093,-6.155 28.49,-4.594C31.16,-2.853 33.838,-1.123 36.388,0.532C36.568,-2.378 36.816,-5.332 36.904,-8.29C36.945,-9.632 36.716,-10.99 36.528,-12.329C36.055,-15.703 35.536,-19.069 35.033,-22.438C35.003,-22.636 34.963,-22.834 34.904,-23.024C34.261,-25.076 34.538,-25.762 36.653,-26.355C38.625,-26.909 40.66,-27.238 42.673,-27.641C43.236,-27.753 43.841,-27.911 44.385,-27.814C45.873,-27.549 45.686,-26.167 45.845,-25.173C46.458,-21.339 46.998,-17.492 47.464,-13.637C47.645,-12.141 47.551,-10.612 47.596,-9.098C47.642,-7.553 47.812,-6.004 47.741,-4.466C47.572,-0.825 47.306,2.812 47.054,6.448C46.934,8.177 46.787,9.904 46.593,11.625C46.491,12.53 46.422,13.5 46.031,14.289C45.759,14.838 44.981,15.444 44.403,15.471C43.24,15.524 42.001,15.367 40.903,14.985C39.653,14.55 38.471,13.853 37.351,13.129C35.232,11.76 33.17,10.303 31.101,8.859C27.456,6.315 23.82,3.758 20.187,1.197C17.867,-0.439 15.576,-2.115 13.241,-3.728C11.707,-4.787 10.114,-5.762 8.553,-6.782C5.687,-8.656 2.825,-10.535 0,-12.387" style="fill-rule:nonzero;"/>
    </g>
    <g transform="matrix(3.838841,0,0,3.838841,522.966964,556.498841)">
        <path d="M0,-17.623C-0.341,-14.663 -0.823,-11.925 -0.93,-9.172C-1.065,-5.724 -0.926,-2.262 -0.842,1.192C-0.759,4.619 0.098,7.919 0.922,11.222C1.236,12.479 0.517,13.425 -0.965,13.749C-2.317,14.045 -3.68,14.296 -5.046,14.518C-6.84,14.809 -8.286,13.891 -8.629,12.071C-9.259,8.725 -10.032,5.374 -10.256,1.993C-10.584,-2.973 -10.649,-7.971 -10.52,-12.948C-10.378,-18.465 -9.5,-23.897 -7.937,-29.224C-6.996,-32.432 -4.339,-32.272 -2.463,-30.973C0.271,-29.08 2.897,-27.032 5.626,-25.133C9.63,-22.346 13.71,-19.669 17.706,-16.872C20.059,-15.225 22.301,-13.422 24.614,-11.719C26.172,-10.573 27.745,-9.446 29.35,-8.367C31.695,-6.79 34.074,-5.264 36.605,-3.607C36.478,-5.926 36.322,-8.064 36.26,-10.205C36.229,-11.273 36.426,-12.346 36.419,-13.416C36.404,-15.349 36.303,-17.282 36.259,-19.216C36.218,-21.03 36.176,-22.844 36.188,-24.658C36.197,-25.971 36.75,-26.447 38.131,-26.492C40.576,-26.571 43.024,-26.611 45.465,-26.763C46.595,-26.833 47.013,-26.288 47.028,-25.324C47.071,-22.594 47.043,-19.863 47.081,-17.133C47.121,-14.317 47.252,-11.501 47.26,-8.685C47.268,-5.764 47.152,-2.842 47.138,0.08C47.13,1.694 47.289,3.311 47.248,4.924C47.177,7.716 45.845,9.479 42.621,8.953C40.213,8.56 38.055,7.759 36,6.574C34.658,5.8 33.399,4.881 32.111,4.015C28.211,1.392 24.311,-1.232 20.417,-3.865C15.991,-6.857 11.576,-9.865 7.148,-12.855C4.849,-14.407 2.534,-15.934 0,-17.623" style="fill-rule:nonzero;"/>
    </g>
    <g transform="matrix(3.838841,0,0,3.838841,1029.605284,931.22499)">
        <path d="M0,-3.027C1.643,1.133 3.219,5.146 4.814,9.152C5.741,11.482 6.729,13.788 7.627,16.128C7.95,16.97 7.631,17.729 6.813,18.144C5.357,18.88 3.859,19.533 2.405,20.272C1.486,20.739 0.973,20.354 0.631,19.552C-1.923,13.545 -5.236,7.888 -7.442,1.715C-8.501,-1.247 -9.906,-4.084 -11.144,-6.982C-11.422,-7.632 -11.7,-8.288 -11.901,-8.964C-12.065,-9.514 -12.076,-9.97 -11.322,-10.271C-9.192,-11.122 -7.126,-12.13 -5.006,-13.007C-3.438,-13.656 -2.174,-12.827 -0.916,-12.012C2.017,-10.111 4.95,-8.208 7.917,-6.362C11.094,-4.386 14.31,-2.471 17.512,-0.535C18.037,-0.218 18.577,0.073 19.429,0.557C18.889,-0.779 18.523,-1.801 18.071,-2.783C16.159,-6.943 14.232,-11.096 12.287,-15.24C11.702,-16.488 11.033,-17.695 10.422,-18.931C9.811,-20.166 9.924,-20.416 11.142,-20.983C12.593,-21.658 14.021,-22.386 15.471,-23.065C16.969,-23.766 17.767,-23.504 18.413,-21.999C19.525,-19.41 20.528,-16.773 21.66,-14.194C22.912,-11.339 24.328,-8.555 25.544,-5.685C26.875,-2.548 28.059,0.651 29.306,3.824C29.449,4.188 29.555,4.573 29.736,4.917C30.346,6.08 30.176,7.049 28.987,7.758C27.024,8.928 25.01,10.018 22.97,11.048C22.623,11.223 21.944,11.067 21.578,10.823C16.612,7.52 11.702,4.13 6.715,0.859C4.609,-0.522 2.353,-1.675 0,-3.027" style="fill-rule:nonzero;"/>
    </g>
    <g transform="matrix(3.838841,0,0,3.838841,1266.7873,806.035783)">
        <path d="M0,4.424C-1.345,3.147 -2.716,1.844 -4.299,0.34C-5.139,1.257 -5.928,2.191 -6.794,3.048C-7.965,4.206 -9.052,4.131 -10.208,2.899C-10.907,2.154 -11.798,1.506 -12.245,0.632C-12.546,0.043 -12.523,-1.123 -12.126,-1.587C-10.348,-3.665 -8.383,-5.584 -6.485,-7.56C-6.264,-7.791 -6.015,-7.998 -5.816,-8.245C-4.555,-9.81 -4.566,-9.805 -3.094,-8.351C-0.443,-5.731 2.212,-3.115 4.884,-0.516C5.304,-0.106 5.84,0.182 6.29,0.565C7.937,1.963 8.264,3.707 7.159,5.909C5.293,9.63 3.078,13.133 -0.046,15.939C-2.881,18.486 -6.232,19.874 -10.027,20.533C-14.167,21.251 -17.835,20.061 -21.322,18.255C-23.068,17.35 -24.575,15.826 -25.908,14.33C-27.188,12.894 -28.35,11.24 -29.112,9.485C-29.883,7.71 -30.337,5.715 -30.513,3.779C-31.026,-1.875 -28.736,-6.507 -24.831,-10.439C-22.157,-13.132 -19.265,-15.497 -15.44,-16.375C-14.901,-16.499 -14.362,-16.638 -13.816,-16.712C-12.973,-16.827 -12.151,-16.023 -12.075,-14.962C-11.964,-13.416 -11.894,-11.868 -11.845,-10.319C-11.81,-9.211 -12.331,-8.65 -13.427,-8.576C-16.213,-8.388 -18.287,-6.94 -20.032,-4.891C-20.49,-4.352 -20.993,-3.851 -21.436,-3.3C-23.657,-0.535 -23.637,4.868 -21.082,7.508C-19.714,8.922 -18.362,10.353 -16.977,11.75C-16.743,11.986 -16.392,12.133 -16.069,12.247C-13.298,13.23 -10.499,13.222 -7.731,12.295C-5.352,11.498 -3.656,9.793 -2.244,7.791C-1.496,6.731 -0.803,5.633 0,4.424" style="fill-rule:nonzero;"/>
    </g>
    <g transform="matrix(3.838841,0,0,3.838841,285.492428,899.195621)">
        <path d="M0,-8.709C2.498,-6.99 4.901,-5.337 7.314,-3.677C8.214,-7.164 9.123,-10.69 10.074,-14.378C6.726,-12.494 3.545,-10.704 0,-8.709M5.294,3.561C3.481,1.999 1.711,0.392 -0.149,-1.103C-2.016,-2.605 -3.974,-3.995 -5.932,-5.463C-7.939,-4.264 -10,-2.956 -12.15,-1.813C-12.555,-1.598 -13.409,-1.888 -13.884,-2.204C-15.094,-3.01 -16.27,-3.892 -17.336,-4.876C-18.168,-5.644 -18.024,-6.153 -17.166,-6.669C-15.243,-7.827 -13.361,-9.053 -11.417,-10.174C-8.343,-11.946 -5.23,-13.65 -2.139,-15.392C0.493,-16.875 3.111,-18.386 5.751,-19.854C7.027,-20.564 8.353,-21.186 9.635,-21.885C10.561,-22.39 11.45,-22.962 12.361,-23.495C13.053,-23.9 13.623,-24.272 14.39,-23.381C15.091,-22.568 16.081,-21.952 17.04,-21.423C18.869,-20.415 18.521,-18.811 18.277,-17.266C18.107,-16.189 17.702,-15.151 17.454,-14.083C16.957,-11.946 16.535,-9.791 16.011,-7.661C15.139,-4.122 14.178,-0.605 13.318,2.937C12.568,6.025 11.907,9.136 11.203,12.236C11.045,12.932 10.898,13.634 10.691,14.316C10.412,15.232 9.005,15.563 8.257,14.996C6.987,14.033 5.689,13.098 4.35,12.234C3.238,11.515 3.098,11.025 3.503,9.775C4.17,7.721 4.707,5.625 5.294,3.561" style="fill-rule:nonzero;"/>
    </g>
    <g transform="matrix(3.838841,0,0,3.838841,867.709463,986.007937)">
        <path d="M0,2.091C-0.081,1.538 -0.181,0.834 -0.29,0.131C-0.566,-1.652 -0.594,-3.5 -1.74,-5.045C-3.338,-7.199 -4.831,-9.537 -7.878,-9.701C-9.115,-9.768 -10.368,-9.469 -11.617,-9.384C-13.504,-9.256 -13.931,-7.218 -15.39,-6.537C-15.431,-6.518 -15.413,-6.386 -15.433,-6.309C-15.868,-4.689 -16.384,-3.085 -16.722,-1.445C-17.357,1.639 -16.565,4.54 -15.179,7.252C-14.064,9.434 -12.067,10.742 -9.784,11.449C-8.278,11.915 -6.775,12.34 -5.112,11.323C-1.655,9.208 -0.329,6.06 0,2.091M-8.597,19.23C-8.903,19.17 -9.444,19.063 -9.986,18.959C-13.137,18.358 -15.907,16.932 -18.213,14.758C-19.221,13.807 -19.974,12.513 -20.609,11.257C-21.664,9.167 -22.14,6.882 -22.37,4.551C-22.49,3.343 -22.836,2.122 -22.736,0.936C-22.536,-1.441 -22.215,-3.821 -21.728,-6.155C-21.231,-8.532 -19.914,-10.607 -18.429,-12.46C-17.532,-13.578 -16.14,-14.338 -14.882,-15.118C-11.965,-16.926 -8.69,-17.139 -5.476,-16.501C-2.442,-15.898 0.063,-14.338 2.029,-11.666C3.628,-9.492 5.005,-7.261 5.798,-4.759C6.508,-2.519 7.019,-0.128 7.079,2.21C7.173,5.898 6.196,9.433 4.236,12.615C3.216,14.27 1.643,15.331 0.04,16.389C-2.835,18.285 -6.2,18.903 -8.597,19.23" style="fill-rule:nonzero;"/>
    </g>
    <g transform="matrix(3.838841,0,0,3.838841,693.621868,1035.540117)">
        <path d="M0,-21.377C-1.077,-21.222 -2.171,-21.143 -3.226,-20.896C-5.205,-20.431 -6.473,-18.943 -7.461,-17.355C-9.308,-14.384 -10.025,-11.052 -9.896,-7.558C-9.774,-4.225 -8.128,-1.815 -5.209,-0.31C-3.686,0.475 -1.963,1.181 -0.303,0.682C1.18,0.235 2.609,-0.677 3.821,-1.676C6.9,-4.212 7.301,-7.909 7.59,-11.538C7.817,-14.392 6.237,-16.642 4.732,-18.903C3.577,-20.639 2.077,-21.479 0,-21.377M-16.411,-9.249C-16.056,-11.294 -15.7,-13.339 -15.345,-15.384C-15.194,-16.252 -15.218,-17.199 -14.865,-17.974C-13.412,-21.166 -11.502,-24.041 -8.575,-26.108C-7.897,-26.587 -7.193,-27.03 -6.516,-27.509C-4.662,-28.82 -2.468,-28.76 -0.376,-28.871C0.711,-28.929 1.882,-28.475 2.927,-28.042C7.437,-26.175 10.489,-22.78 11.921,-18.223C12.656,-15.886 12.53,-13.258 12.647,-10.754C12.718,-9.215 12.425,-7.661 12.451,-6.116C12.493,-3.617 11.236,-1.678 9.922,0.252C8.611,2.178 7.152,4.002 4.99,5.004C3.546,5.672 2.02,6.369 0.471,6.557C-1.833,6.837 -4.234,7.552 -6.505,6.3C-8.277,5.324 -10.218,4.6 -11.502,2.897C-12.381,1.731 -13.426,0.669 -14.165,-0.578C-15.594,-2.993 -16.174,-5.674 -16.144,-8.482C-16.141,-8.722 -16.144,-8.962 -16.144,-9.202C-16.233,-9.218 -16.322,-9.233 -16.411,-9.249" style="fill-rule:nonzero;"/>
    </g>
    <g transform="matrix(3.838841,0,0,3.838841,255.041207,750.14533)">
        <path d="M0,2.726C-2.758,4.871 -5.453,7.026 -8.212,9.095C-10.703,10.965 -13.284,12.715 -15.787,14.569C-17.25,15.654 -18.675,16.798 -20.046,17.997C-20.873,18.721 -21.721,18.439 -22.269,17.933C-23.33,16.953 -24.353,15.842 -25.038,14.592C-25.272,14.165 -24.635,12.941 -24.073,12.454C-22.095,10.739 -19.956,9.212 -17.919,7.563C-16.173,6.15 -14.525,4.613 -12.755,3.23C-10.523,1.486 -8.206,-0.15 -5.937,-1.847C-5.369,-2.273 -4.845,-2.757 -4.335,-3.185C-5.995,-5.507 -7.64,-7.815 -9.295,-10.115C-9.607,-10.548 -10.071,-10.908 -10.254,-11.382C-10.37,-11.684 -10.224,-12.28 -9.978,-12.495C-8.857,-13.477 -7.69,-14.415 -6.478,-15.283C-5.484,-15.995 -4.655,-15.634 -3.71,-14.309C-1.295,-10.923 1.141,-7.552 3.573,-4.178C4.758,-2.535 5.957,-0.901 7.146,0.739C8.056,1.995 8.909,3.298 9.885,4.501C10.64,5.431 10.459,6.268 9.741,6.964C8.808,7.869 7.987,8.954 6.579,9.258C5.685,9.45 5.044,9.221 4.496,8.506C3.028,6.589 1.533,4.693 0,2.726" style="fill-rule:nonzero;"/>
    </g>
    <g transform="matrix(3.838841,0,0,3.838841,544.34854,1004.369881)">
        <path d="M0,-19.101C-2.614,-19.777 -5.125,-20.449 -7.649,-21.069C-9.215,-21.454 -9.144,-21.398 -8.761,-22.892C-8.462,-24.064 -8.341,-25.289 -8.231,-26.499C-8.095,-28.008 -7.719,-28.246 -6.261,-27.87C-4.042,-27.298 -1.786,-26.87 0.436,-26.307C4.115,-25.377 7.786,-24.411 11.448,-23.414C13.196,-22.938 14.93,-22.396 16.641,-21.799C17.312,-21.565 18.374,-21.521 17.555,-20.163C17.116,-19.435 17.362,-18.313 17.217,-17.382C16.944,-15.639 16.466,-15.279 14.721,-15.62C12.243,-16.103 9.782,-16.673 7.166,-17.237C6.617,-14.906 6.077,-12.549 5.507,-10.2C4.506,-6.071 3.477,-1.948 2.48,2.181C2.012,4.119 1.586,6.067 1.148,8.012C0.947,8.904 0.492,9.145 -0.446,8.943C-1.792,8.654 -3.182,8.561 -4.556,8.408C-5.545,8.298 -5.916,7.533 -5.616,6.281C-4.708,2.494 -3.773,-1.288 -2.936,-5.091C-2.007,-9.311 -1.174,-13.552 -0.297,-17.784C-0.218,-18.167 -0.126,-18.546 0,-19.101" style="fill-rule:nonzero;"/>
    </g>
    <g transform="matrix(3.838841,0,0,3.838841,427.412456,959.3564)">
        <path d="M0,-17.54C-2.059,-18.493 -4.003,-19.381 -5.935,-20.295C-6.675,-20.645 -7.409,-21.022 -8.095,-21.464C-8.268,-21.577 -8.393,-22.067 -8.294,-22.252C-7.52,-23.707 -6.695,-25.135 -5.866,-26.56C-5.425,-27.317 -4.893,-27.385 -4.083,-26.952C-1.83,-25.746 0.441,-24.561 2.774,-23.522C7.409,-21.458 12.091,-19.502 16.749,-17.491C17.217,-17.289 17.656,-17.017 18.184,-16.736C17.932,-15.816 17.769,-14.893 17.422,-14.046C17.021,-13.064 16.486,-12.131 15.938,-11.22C15.829,-11.039 15.341,-10.908 15.126,-10.996C12.274,-12.164 9.44,-13.375 6.624,-14.567C5.443,-11.914 4.223,-9.197 3.022,-6.47C1.324,-2.613 -0.365,1.248 -2.048,5.112C-2.545,6.254 -2.963,7.433 -3.505,8.553C-3.915,9.401 -5.439,9.845 -6.285,9.459C-7.101,9.087 -7.91,8.7 -8.724,8.326C-10.057,7.715 -10.401,6.829 -9.805,5.503C-8.56,2.733 -7.252,-0.01 -6.077,-2.809C-4.66,-6.185 -3.371,-9.615 -1.992,-13.008C-1.37,-14.54 -0.663,-16.038 0,-17.54" style="fill-rule:nonzero;"/>
    </g>
    <g transform="matrix(3.838841,0,0,3.838841,973.143612,914.058078)">
        <path d="M0,28.84C-0.628,29.283 -1.258,29.929 -2.022,30.221C-3.416,30.754 -4.875,31.164 -6.342,31.424C-6.682,31.485 -7.43,30.802 -7.544,30.348C-9.133,24.018 -10.633,17.666 -12.181,11.325C-12.944,8.198 -13.759,5.084 -14.55,1.964C-14.559,1.926 -14.547,1.883 -14.556,1.845C-14.735,1.111 -15.271,0.175 -15,-0.303C-14.703,-0.828 -13.673,-0.965 -12.943,-1.209C-11.68,-1.632 -10.411,-2.039 -9.128,-2.392C-8.208,-2.645 -7.817,-2.02 -7.626,-1.269C-6.723,2.273 -5.84,5.82 -4.95,9.365C-3.729,14.226 -2.511,19.087 -1.284,23.947C-0.9,25.466 -0.489,26.98 0,28.84" style="fill-rule:nonzero;"/>
    </g>
    <g transform="matrix(3.838841,0,0,3.838841,248.341278,292.171997)">
        <path d="M0,-5.63C-0.92,-6.448 -1.644,-7.158 -2.434,-7.783C-5.197,-9.967 -7.985,-12.119 -10.761,-14.287C-12.942,-15.991 -15.138,-17.68 -17.274,-19.439C-17.536,-19.655 -17.695,-20.439 -17.52,-20.669C-16.369,-22.185 -15.182,-23.69 -13.843,-25.035C-13.504,-25.376 -12.369,-25.408 -11.947,-25.103C-9.637,-23.429 -7.452,-21.582 -5.189,-19.843C-3.907,-18.857 -2.51,-18.019 -1.244,-17.014C1.268,-15.021 3.717,-12.949 6.208,-10.929C7.988,-9.484 9.779,-8.052 11.592,-6.649C12.827,-5.693 12.927,-4.753 11.916,-3.521C10.464,-1.75 9.082,0.08 7.591,1.816C7.297,2.157 6.62,2.383 6.157,2.33C2.981,1.97 -0.182,1.491 -3.357,1.111C-6.772,0.702 -10.195,0.359 -13.615,-0.011C-15.738,-0.241 -17.862,-0.466 -19.959,-0.69C-19.167,0.184 -18.472,1.159 -17.58,1.896C-14.523,4.422 -11.393,6.86 -8.299,9.341C-6.576,10.722 -4.868,12.123 -3.152,13.514C-2.461,14.073 -2.45,14.674 -2.976,15.366C-3.861,16.531 -4.71,17.724 -5.587,18.895C-6.127,19.616 -6.746,19.778 -7.518,19.186C-10.162,17.161 -12.847,15.187 -15.47,13.134C-20.49,9.203 -25.481,5.235 -30.476,1.273C-31.003,0.855 -31.499,0.395 -31.979,-0.076C-32.636,-0.722 -32.524,-1.935 -31.707,-2.89C-30.099,-4.769 -28.567,-6.732 -26.796,-8.444C-26.264,-8.959 -25.021,-8.952 -24.14,-8.855C-20.444,-8.446 -16.757,-7.945 -13.075,-7.415C-9.505,-6.901 -5.947,-6.299 -2.38,-5.763C-1.679,-5.658 -0.96,-5.68 0,-5.63" style="fill-rule:nonzero;"/>
    </g>
    <g transform="matrix(3.838841,0,0,3.838841,742.701449,115.935034)">
        <path d="M0,-14.72C-0.833,-6.618 -0.854,1.374 -2.203,9.29C-4.718,9.075 -7.005,8.907 -9.282,8.646C-9.54,8.617 -9.95,8.057 -9.932,7.765C-9.771,5.116 -9.534,2.471 -9.311,-0.175C-9.219,-1.28 -9.094,-2.382 -9.01,-3.487C-8.761,-6.765 -8.576,-10.049 -8.271,-13.321C-7.927,-17.017 -7.499,-20.706 -7.062,-24.392C-6.97,-25.17 -6.492,-25.715 -5.594,-25.624C-2.989,-25.362 -0.381,-25.12 2.217,-24.799C2.869,-24.719 3.371,-24.41 3.533,-23.534C3.69,-22.681 4.291,-21.908 4.702,-21.102C7.34,-15.932 9.966,-10.756 12.625,-5.596C13.616,-3.674 14.684,-1.79 15.806,0.277C15.874,-0.064 15.931,-0.253 15.947,-0.445C16.271,-4.44 16.604,-8.434 16.904,-12.43C17.094,-14.958 17.232,-17.49 17.398,-20.02C17.449,-20.809 17.427,-21.617 17.609,-22.376C17.691,-22.712 18.193,-23.18 18.512,-23.186C20.116,-23.216 21.75,-23.262 23.312,-22.971C23.835,-22.873 24.549,-21.785 24.535,-21.163C24.453,-17.545 24.195,-13.93 23.967,-10.316C23.8,-7.661 23.611,-5.008 23.391,-2.357C23.124,0.862 22.807,4.076 22.527,7.294C22.465,8.004 22.391,8.727 22.454,9.432C22.551,10.507 22.231,10.995 21.068,10.869C19.139,10.66 17.192,10.348 15.269,10.433C13.716,10.502 13.087,9.773 12.465,8.598C10.014,3.964 7.497,-0.635 5.021,-5.256C3.531,-8.035 2.07,-10.829 0.596,-13.616C0.419,-13.95 0.237,-14.281 0,-14.72" style="fill-rule:nonzero;"/>
    </g>
    <g transform="matrix(3.838841,0,0,3.838841,1133.774918,258.886559)">
        <path d="M0,-23.68C-1.233,-21.9 -2.272,-20.284 -3.44,-18.769C-3.949,-18.109 -4.003,-17.682 -3.295,-17.279C-1.146,-16.056 0.99,-14.809 3.186,-13.676C4.315,-13.093 5.604,-13.426 6.486,-14.125C7.383,-14.837 7.691,-16.082 7.408,-17.278C6.949,-19.22 5.672,-20.589 4.016,-21.577C2.68,-22.374 1.258,-23.028 0,-23.68M-7.722,-12.609C-8.717,-11.12 -9.69,-9.68 -10.647,-8.23C-11.821,-6.448 -12.932,-4.621 -14.162,-2.879C-15.706,-0.692 -15.475,-0.832 -17.522,-2.146C-18.652,-2.872 -19.749,-3.669 -20.753,-4.556C-20.977,-4.755 -20.927,-5.58 -20.704,-5.919C-19.062,-8.422 -17.312,-10.853 -15.657,-13.347C-13.912,-15.978 -12.254,-18.667 -10.522,-21.307C-8.377,-24.578 -6.205,-27.832 -4.024,-31.08C-3.03,-32.561 -1.827,-32.856 -0.42,-31.914C2.734,-29.801 5.747,-27.451 9.029,-25.566C11.439,-24.183 13.121,-22.333 14.451,-20.011C16.477,-16.473 15.112,-10.537 11.638,-8.03C9.238,-6.297 6.805,-6.051 4.106,-6.775C3.441,-6.953 2.781,-7.155 2.018,-7.375C1.99,-7.17 1.938,-6.959 1.934,-6.746C1.849,-3.052 1.813,0.644 1.667,4.336C1.614,5.655 1.33,6.97 1.087,8.274C0.919,9.176 0.33,8.975 -0.243,8.658C-1.579,7.92 -2.975,7.265 -4.22,6.395C-4.674,6.079 -5.004,5.245 -4.991,4.656C-4.91,0.677 -4.728,-3.299 -4.56,-7.276C-4.524,-8.145 -4.381,-9.011 -4.355,-9.881C-4.348,-10.096 -4.561,-10.385 -4.755,-10.527C-5.714,-11.232 -6.701,-11.898 -7.722,-12.609" style="fill-rule:nonzero;"/>
    </g>
    <g transform="matrix(3.838841,0,0,3.838841,1257.931478,351.370762)">
        <path d="M0,-19.123C-1.461,-18.033 -2.864,-16.986 -4.188,-15.999C-2.098,-13.158 -0.047,-10.41 1.932,-7.611C2.124,-7.339 2.037,-6.536 1.793,-6.346C0.245,-5.138 -1.367,-4.008 -3.007,-2.926C-3.225,-2.783 -3.866,-2.939 -4.067,-3.169C-5.812,-5.175 -7.507,-7.225 -9.203,-9.273C-9.703,-9.878 -10.157,-10.521 -10.666,-11.19C-12.41,-9.889 -14.109,-8.621 -15.802,-7.358C-14.053,-5.01 -12.392,-2.753 -10.701,-0.519C-9.248,1.4 -7.787,3.316 -6.272,5.186C-5.773,5.802 -5.923,6.071 -6.478,6.512C-7.898,7.64 -9.211,8.909 -10.67,9.979C-11.022,10.237 -12.043,10.173 -12.301,9.869C-13.516,8.444 -14.564,6.877 -15.688,5.373C-19.051,0.872 -22.421,-3.623 -25.789,-8.12C-26.589,-9.187 -25.715,-9.849 -25.078,-10.341C-22.218,-12.552 -19.283,-14.665 -16.383,-16.825C-13.633,-18.871 -10.908,-20.95 -8.147,-22.981C-6.006,-24.556 -3.825,-26.079 -1.664,-27.629C-1.218,-27.949 -0.825,-28.366 -0.34,-28.604C1.196,-29.36 2.086,-28.216 2.864,-27.269C5.497,-24.068 8.042,-20.793 10.614,-17.543C12.002,-15.789 13.359,-14.011 14.768,-12.275C15.326,-11.588 15.267,-11.13 14.534,-10.63C13.349,-9.821 12.208,-8.947 11.053,-8.095C9.74,-7.126 9.41,-7.228 8.416,-8.502C6.49,-10.971 4.485,-13.38 2.529,-15.826C1.694,-16.87 0.901,-17.946 0,-19.123" style="fill-rule:nonzero;"/>
    </g>
    <g transform="matrix(3.838841,0,0,3.838841,967.287844,118.601109)">
        <path d="M0,-0.498C-0.12,-2.029 -0.225,-3.214 -0.303,-4.4C-0.49,-7.238 -1.807,-9.23 -4.603,-10.06C-5.393,-10.294 -6.234,-10.351 -7.051,-10.495C-9.488,-10.924 -11.749,-10.439 -13.357,-8.549C-14.639,-7.045 -15.781,-5.318 -16.545,-3.505C-17.269,-1.787 -17.565,0.156 -17.782,2.031C-17.972,3.663 -18.265,5.442 -16.959,6.843C-16.301,7.548 -15.569,8.196 -14.806,8.789C-11.905,11.043 -8.153,11.321 -5.432,9.352C-1.989,6.861 -0.551,3.243 0,-0.498M7.107,-3.547C6.779,-1.812 6.522,-0.059 6.102,1.653C5.647,3.506 5.07,5.33 4.492,7.15C3.876,9.086 2.847,10.806 1.602,12.407C-0.882,15.602 -4.443,16.601 -8.174,17.395C-10.701,17.932 -13.097,17.396 -15.404,16.672C-16.869,16.213 -18.229,15.16 -19.412,14.119C-21.536,12.252 -22.741,9.67 -23.447,7.046C-23.993,5.015 -23.703,2.759 -23.779,0.602C-23.806,-0.169 -23.92,-0.956 -23.814,-1.71C-23.344,-5.077 -21.948,-7.996 -19.942,-10.781C-18.126,-13.301 -15.971,-15.226 -13.331,-16.767C-10.479,-18.43 -7.62,-18.428 -4.652,-17.222C-3.212,-16.637 -1.75,-16.105 -0.309,-15.52C1.928,-14.612 3.3,-12.74 4.648,-10.892C6.222,-8.734 7.224,-6.354 7.107,-3.547" style="fill-rule:nonzero;"/>
    </g>
    <g transform="matrix(3.838841,0,0,3.838841,376.571232,137.381103)">
        <path d="M0,9.713C-0.059,6.63 -1.464,4.618 -2.668,2.581C-5.219,-1.737 -7.933,-5.958 -10.534,-10.247C-10.929,-10.898 -11.081,-11.668 -10.194,-12.229C-9.006,-12.981 -7.884,-13.839 -6.683,-14.569C-5.94,-15.02 -4.621,-14.596 -4.16,-13.809C-2.097,-10.289 -0.081,-6.741 2.002,-3.233C2.899,-1.724 4.042,-0.352 4.849,1.199C5.84,3.107 6.803,5.078 7.386,7.132C7.819,8.659 8.375,10.315 7.373,12.001C6.708,13.121 6.476,14.49 5.969,15.713C4.363,19.592 1.235,21.919 -2.522,23.26C-6.356,24.628 -10.355,24.733 -13.991,22.554C-15.318,21.759 -16.473,20.475 -17.355,19.175C-19.835,15.517 -22.152,11.746 -24.495,7.997C-25.774,5.952 -26.97,3.856 -28.214,1.79C-29.206,0.144 -29.024,-0.678 -27.424,-1.659C-26.618,-2.154 -25.814,-2.651 -25.011,-3.151C-23.835,-3.883 -22.943,-3.561 -22.077,-2.066C-20.395,0.836 -18.807,3.796 -17.02,6.631C-15.247,9.445 -13.336,12.178 -11.375,14.865C-9.781,17.048 -7.412,16.827 -5.141,16.427C-2.707,15.999 0.232,13.194 0,9.713" style="fill-rule:nonzero;"/>
    </g>
    <g transform="matrix(3.838841,0,0,3.838841,538.257451,128.777109)">
        <path d="M0,-19.032C-2.643,-18.665 -5.21,-18.327 -7.77,-17.944C-8.757,-17.797 -9.618,-18.409 -9.761,-19.383C-9.937,-20.582 -10.273,-21.766 -10.347,-22.968C-10.375,-23.417 -9.97,-24.095 -9.567,-24.323C-8.865,-24.72 -8.025,-24.961 -7.217,-25.071C-5.417,-25.316 -3.601,-25.438 -1.792,-25.614C-0.139,-25.774 1.514,-25.927 3.165,-26.104C5.279,-26.33 7.39,-26.587 9.505,-26.813C11.15,-26.989 12.81,-27.068 14.443,-27.32C15.744,-27.52 16.136,-26.625 16.362,-25.77C16.674,-24.587 16.802,-23.337 16.857,-22.109C16.895,-21.253 16.205,-20.909 15.427,-20.815C13.4,-20.569 11.371,-20.339 9.345,-20.089C8.844,-20.027 8.35,-19.912 7.757,-19.804C7.843,-18.03 7.895,-16.29 8.021,-14.555C8.133,-13.011 8.356,-11.476 8.48,-9.934C8.741,-6.7 8.917,-3.458 9.226,-0.229C9.436,1.955 9.794,4.127 10.125,6.298C10.279,7.303 9.594,8.121 8.376,8.224C7.198,8.323 6.017,8.391 4.836,8.456C4.247,8.488 3.027,7.467 2.972,6.91C2.647,3.609 2.367,0.303 1.993,-2.992C1.66,-5.927 1.196,-8.847 0.845,-11.781C0.617,-13.687 0.495,-15.606 0.305,-17.518C0.263,-17.942 0.139,-18.359 0,-19.032" style="fill-rule:nonzero;"/>
    </g>
    <g transform="matrix(3.838841,0,0,3.838841,424.384763,170.808578)">
        <path d="M0,-29.676C1.456,-30.207 2.93,-30.79 4.433,-31.282C6.608,-31.994 6.275,-31.949 7.118,-29.936C8.307,-27.095 9.083,-24.078 9.99,-21.123C11.219,-17.115 12.415,-13.097 13.609,-9.078C14.363,-6.541 15.044,-3.98 15.846,-1.458C16.172,-0.433 16.173,0.253 14.991,0.618C13.299,1.14 11.638,1.766 9.937,2.251C9.7,2.318 9.124,1.894 9.014,1.587C8.5,0.15 8.103,-1.329 7.647,-2.787C6.279,-7.161 4.856,-11.519 3.544,-15.91C2.581,-19.13 1.743,-22.389 0.885,-25.64C0.565,-26.852 0.344,-28.09 0,-29.676" style="fill-rule:nonzero;"/>
    </g>
    <g transform="matrix(3.838841,0,0,3.838841,995.092953,108.357162)">
        <path d="M0,26.097C0.257,25.424 0.512,24.574 0.899,23.788C1.47,22.63 2.163,21.533 2.754,20.384C4.051,17.864 5.349,15.344 6.585,12.794C8.24,9.381 9.841,5.941 11.459,2.509C12.277,0.775 13.043,-0.986 13.929,-2.685C14.084,-2.981 14.801,-3.26 15.119,-3.149C16.676,-2.605 18.227,-2.006 19.678,-1.233C19.997,-1.063 20.138,-0.011 19.949,0.473C19.172,2.466 18.235,4.396 17.357,6.35C16.536,8.178 15.754,10.026 14.888,11.832C12.417,16.991 9.926,22.14 7.411,27.277C6.516,29.106 5.46,29.357 3.685,28.289C2.573,27.62 1.455,26.962 0,26.097" style="fill-rule:nonzero;"/>
    </g>
</svg>
